{
  "accessors": [
    {
      "bufferView": 2,
      "componentType": 5126,
      "count": 17284,
      "max": [
        4.065147876739502,
        3.616957902908325,
        -0.08817099779844284
      ],
      "min": [
        -1.3739110231399536,
        -3.616957902908325,
        -2.3596460819244385
      ],
      "type": "VEC3"
    },
    {
      "bufferView": 2,
      "byteOffset": 207408,
      "componentType": 5126,
      "count": 17284,
      "max": [
        1.0,
        1.0,
        1.0
      ],
      "min": [
        -1.0,
        -1.0,
        -1.0
      ],
      "type": "VEC3"
    },
    {
      "bufferView": 1,
      "componentType": 5126,
      "count": 17284,
      "max": [
        0.9617429971694946,
        0.9980080127716064
      ],
      "min": [
        0.0019199999514967203,
        0.0019920000340789557
      ],
      "type": "VEC2"
    },
    {
      "bufferView": 1,
      "byteOffset": 138272,
      "componentType": 5126,
      "count": 17284,
      "max": [
        0.9617429971694946,
        0.9980080127716064
      ],
      "min": [
        0.0019199999514967203,
        0.0019920000340789557
      ],
      "type": "VEC2"
    },
    {
      "bufferView": 1,
      "byteOffset": 276544,
      "componentType": 5126,
      "count": 17284,
      "max": [
        0.9617429971694946,
        0.9980080127716064
      ],
      "min": [
        0.0019199999514967203,
        0.0019920000340789557
      ],
      "type": "VEC2"
    },
    {
      "bufferView": 1,
      "byteOffset": 414816,
      "componentType": 5126,
      "count": 17284,
      "max": [
        0.9617429971694946,
        0.9980080127716064
      ],
      "min": [
        0.0019199999514967203,
        0.0019920000340789557
      ],
      "type": "VEC2"
    },
    {
      "bufferView": 0,
      "componentType": 5125,
      "count": 80688,
      "type": "SCALAR"
    }
  ],
  "asset": {
    "extras": {
      "author": "al_okaidi_production (https://sketchfab.com/Waleed_kh313)",
      "license": "CC-BY-4.0 (http://creativecommons.org/licenses/by/4.0/)",
      "source": "https://sketchfab.com/3d-models/couch-with-bed-35127e71defc48ec89af7bcd5913240e",
      "title": "couch with bed"
    },
    "generator": "Sketchfab-14.8.0",
    "version": "2.0"
  },
  "bufferViews": [
    {
      "buffer": 0,
      "byteLength": 322752,
      "name": "floatBufferViews",
      "target": 34963
    },
    {
      "buffer": 0,
      "byteLength": 553088,
      "byteOffset": 322752,
      "byteStride": 8,
      "name": "floatBufferViews",
      "target": 34962
    },
    {
      "buffer": 0,
      "byteLength": 414816,
      "byteOffset": 875840,
      "byteStride": 12,
      "name": "floatBufferViews",
      "target": 34962
    }
  ],
  "buffers": [
    {
      "byteLength": 1290656,
      "uri": "scene.bin"
    }
  ],
  "images": [
    {
      "uri": "textures/Material.001_baseColor.png"
    },
    {
      "uri": "textures/Material.001_metallicRoughness.png"
    }
  ],
  "materials": [
    {
      "doubleSided": true,
      "name": "Material.001",
      "pbrMetallicRoughness": {
        "baseColorTexture": {
          "index": 0
        },
        "metallicRoughnessTexture": {
          "index": 1
        }
      }
    }
  ],
  "meshes": [
    {
      "name": "Object_0",
      "primitives": [
        {
          "attributes": {
            "NORMAL": 1,
            "POSITION": 0,
            "TEXCOORD_0": 2,
            "TEXCOORD_1": 3,
            "TEXCOORD_2": 4,
            "TEXCOORD_3": 5
          },
          "indices": 6,
          "material": 0,
          "mode": 4
        }
      ]
    }
  ],
  "nodes": [
    {
      "children": [
        1
      ],
      "matrix": [
        1.0,
        0.0,
        0.0,
        0.0,
        0.0,
        2.220446049250313e-16,
        -1.0,
        0.0,
        0.0,
        1.0,
        2.220446049250313e-16,
        0.0,
        0.0,
        0.0,
        0.0,
        1.0
      ],
      "name": "Sketchfab_model"
    },
    {
      "children": [
        2
      ],
      "name": "root"
    },
    {
      "children": [
        3
      ],
      "matrix": [
        1.0,
        0.0,
        0.0,
        0.0,
        0.0,
        2.220446049250313e-16,
        1.0,
        0.0,
        0.0,
        -1.0,
        2.220446049250313e-16,
        0.0,
        0.0,
        0.0,
        0.0,
        1.0
      ],
      "name": "GLTF_SceneRootNode"
    },
    {
      "children": [
        4
      ],
      "matrix": [
        1.0,
        0.0,
        0.0,
        0.0,
        0.0,
        -1.685873969314855e-07,
        0.9999999999999858,
        0.0,
        0.0,
        -0.9999999999999858,
        -1.685873969314855e-07,
        0.0,
        0.0,
        0.0,
        0.0,
        1.0
      ],
      "name": "coach with bed_0"
    },
    {
      "mesh": 0,
      "name": "Object_4"
    }
  ],
  "samplers": [
    {
      "magFilter": 9729,
      "minFilter": 9987,
      "wrapS": 10497,
      "wrapT": 10497
    }
  ],
  "scene": 0,
  "scenes": [
    {
      "name": "Sketchfab_Scene",
      "nodes": [
        0
      ]
    }
  ],
  "textures": [
    {
      "sampler": 0,
      "source": 0
    },
    {
      "sampler": 0,
      "source": 1
    }
  ]
}
