{
  "accessors": [
    {
      "bufferView": 2,
      "componentType": 5126,
      "count": 892,
      "max": [
        8.068449020385742,
        4.245141983032227,
        4.937111854553223
      ],
      "min": [
        -0.10581400245428085,
        -3.6250369548797607,
        0.01617800071835518
      ],
      "type": "VEC3"
    },
    {
      "bufferView": 2,
      "byteOffset": 10704,
      "componentType": 5126,
      "count": 892,
      "max": [
        1.0,
        1.0,
        1.0
      ],
      "min": [
        -1.0,
        -1.0,
        -1.0
      ],
      "type": "VEC3"
    },
    {
      "bufferView": 3,
      "componentType": 5126,
      "count": 892,
      "max": [
        1.0,
        1.0,
        1.0,
        1.0
      ],
      "min": [
        -1.0,
        -1.0,
        -1.0,
        -1.0
      ],
      "type": "VEC4"
    },
    {
      "bufferView": 1,
      "componentType": 5126,
      "count": 892,
      "max": [
        0.9749600291252136,
        0.9926789999008179
      ],
      "min": [
        0.014213000424206257,
        0.007772000040858984
      ],
      "type": "VEC2"
    },
    {
      "bufferView": 0,
      "componentType": 5125,
      "count": 3504,
      "type": "SCALAR"
    },
    {
      "bufferView": 2,
      "byteOffset": 21408,
      "componentType": 5126,
      "count": 170,
      "max": [
        0.1274159997701645,
        3.8052499294281006,
        4.012874126434326
      ],
      "min": [
        0.09002800285816193,
        -3.1851449012756348,
        3.004652976989746
      ],
      "type": "VEC3"
    },
    {
      "bufferView": 2,
      "byteOffset": 23448,
      "componentType": 5126,
      "count": 170,
      "max": [
        0.983061671257019,
        0.9914621710777283,
        0.9914621710777283
      ],
      "min": [
        -0.0,
        -0.9914491772651672,
        -0.9914621710777283
      ],
      "type": "VEC3"
    },
    {
      "bufferView": 1,
      "byteOffset": 7136,
      "componentType": 5126,
      "count": 170,
      "max": [
        0.8098250031471252,
        0.8274800181388855
      ],
      "min": [
        0.004029000177979469,
        0.492341011762619
      ],
      "type": "VEC2"
    },
    {
      "bufferView": 0,
      "byteOffset": 14016,
      "componentType": 5125,
      "count": 660,
      "type": "SCALAR"
    },
    {
      "bufferView": 2,
      "byteOffset": 25488,
      "componentType": 5126,
      "count": 2376,
      "max": [
        0.2927219867706299,
        3.785111904144287,
        3.933799982070923
      ],
      "min": [
        0.1274159997701645,
        -3.1656579971313477,
        3.1794979572296143
      ],
      "type": "VEC3"
    },
    {
      "bufferView": 2,
      "byteOffset": 54000,
      "componentType": 5126,
      "count": 2376,
      "max": [
        1.0,
        0.9938091039657593,
        1.0
      ],
      "min": [
        -1.0,
        -0.9938091039657593,
        -1.0
      ],
      "type": "VEC3"
    },
    {
      "bufferView": 1,
      "byteOffset": 8496,
      "componentType": 5126,
      "count": 2376,
      "max": [
        0.9894909858703613,
        0.995926022529602
      ],
      "min": [
        0.0040259999223053455,
        0.004031000193208456
      ],
      "type": "VEC2"
    },
    {
      "bufferView": 0,
      "byteOffset": 16656,
      "componentType": 5125,
      "count": 6900,
      "type": "SCALAR"
    },
    {
      "bufferView": 2,
      "byteOffset": 82512,
      "componentType": 5126,
      "count": 224,
      "max": [
        7.954081058502197,
        3.1241888999938965,
        0.0801910012960434
      ],
      "min": [
        0.13349699974060059,
        -2.4971680641174316,
        -1.4999999621068127e-05
      ],
      "type": "VEC3"
    },
    {
      "bufferView": 2,
      "byteOffset": 85200,
      "componentType": 5126,
      "count": 224,
      "max": [
        0.9969374537467957,
        1.0,
        1.0
      ],
      "min": [
        -0.9969923496246338,
        -1.0,
        -1.0
      ],
      "type": "VEC3"
    },
    {
      "bufferView": 1,
      "byteOffset": 27504,
      "componentType": 5126,
      "count": 224,
      "max": [
        0.10636399686336517,
        0.9929999709129333
      ],
      "min": [
        0.09477200359106064,
        0.4977029860019684
      ],
      "type": "VEC2"
    },
    {
      "bufferView": 0,
      "byteOffset": 44256,
      "componentType": 5125,
      "count": 516,
      "type": "SCALAR"
    },
    {
      "bufferView": 2,
      "byteOffset": 87888,
      "componentType": 5126,
      "count": 11638,
      "max": [
        8.057867050170898,
        3.5065739154815674,
        1.5799299478530884
      ],
      "min": [
        2.3975958824157715,
        -2.945478916168213,
        0.5765029788017273
      ],
      "type": "VEC3"
    },
    {
      "bufferView": 2,
      "byteOffset": 227544,
      "componentType": 5126,
      "count": 11638,
      "max": [
        0.9999284744262695,
        0.999970555305481,
        0.9999985694885254
      ],
      "min": [
        -0.9985158443450928,
        -0.9999750852584839,
        -0.9999914169311523
      ],
      "type": "VEC3"
    },
    {
      "bufferView": 3,
      "byteOffset": 14272,
      "componentType": 5126,
      "count": 11638,
      "max": [
        0.9999992847442627,
        1.0,
        0.9973564147949219,
        1.0
      ],
      "min": [
        -0.9999997615814209,
        -0.9999999403953552,
        -0.9962552785873413,
        -1.0
      ],
      "type": "VEC4"
    },
    {
      "bufferView": 1,
      "byteOffset": 29296,
      "componentType": 5126,
      "count": 11638,
      "max": [
        0.9796770215034485,
        0.9012500047683716
      ],
      "min": [
        0.006543000228703022,
        0.2341960072517395
      ],
      "type": "VEC2"
    },
    {
      "bufferView": 0,
      "byteOffset": 46320,
      "componentType": 5125,
      "count": 45348,
      "type": "SCALAR"
    },
    {
      "bufferView": 2,
      "byteOffset": 367200,
      "componentType": 5126,
      "count": 7659,
      "max": [
        0.15312699973583221,
        4.193604946136475,
        4.874345779418945
      ],
      "min": [
        -0.10581400245428085,
        -3.573499917984009,
        0.07894399762153625
      ],
      "type": "VEC3"
    },
    {
      "bufferView": 2,
      "byteOffset": 459108,
      "componentType": 5126,
      "count": 7659,
      "max": [
        1.0,
        0.999984860420227,
        0.9999990463256836
      ],
      "min": [
        -1.0,
        -0.999984860420227,
        -0.9999990463256836
      ],
      "type": "VEC3"
    },
    {
      "bufferView": 3,
      "byteOffset": 200480,
      "componentType": 5126,
      "count": 7659,
      "max": [
        0.28044766187667847,
        0.25998732447624207,
        0.4768049418926239,
        1.0
      ],
      "min": [
        -0.9999998807907104,
        -0.26199525594711304,
        -1.0,
        1.0
      ],
      "type": "VEC4"
    },
    {
      "bufferView": 1,
      "byteOffset": 122400,
      "componentType": 5126,
      "count": 7659,
      "max": [
        1.0,
        0.8086479902267456
      ],
      "min": [
        0.0,
        0.0
      ],
      "type": "VEC2"
    },
    {
      "bufferView": 0,
      "byteOffset": 227712,
      "componentType": 5125,
      "count": 39792,
      "type": "SCALAR"
    },
    {
      "bufferView": 2,
      "byteOffset": 551016,
      "componentType": 5126,
      "count": 3699,
      "max": [
        4.067348003387451,
        3.119189977645874,
        2.0815019607543945
      ],
      "min": [
        0.138496994972229,
        -2.4921679496765137,
        0.8471390008926392
      ],
      "type": "VEC3"
    },
    {
      "bufferView": 2,
      "byteOffset": 595404,
      "componentType": 5126,
      "count": 3699,
      "max": [
        0.9999964237213135,
        0.9993212223052979,
        0.9995407462120056
      ],
      "min": [
        -0.9997894167900085,
        -0.9992998838424683,
        -0.9999954700469971
      ],
      "type": "VEC3"
    },
    {
      "bufferView": 1,
      "byteOffset": 183672,
      "componentType": 5126,
      "count": 3699,
      "max": [
        0.9920539855957031,
        0.8768960237503052
      ],
      "min": [
        0.0,
        0.0
      ],
      "type": "VEC2"
    },
    {
      "bufferView": 0,
      "byteOffset": 386880,
      "componentType": 5125,
      "count": 21882,
      "type": "SCALAR"
    }
  ],
  "asset": {
    "extras": {
      "author": "5th Dimension (https://sketchfab.com/5th-Dimension)",
      "license": "CC-BY-4.0 (http://creativecommons.org/licenses/by/4.0/)",
      "source": "https://sketchfab.com/3d-models/bed-01-d4f3bf907138447cbdcee83f838228d5",
      "title": "Bed 01"
    },
    "generator": "Sketchfab-14.41.0",
    "version": "2.0"
  },
  "bufferViews": [
    {
      "buffer": 0,
      "byteLength": 474408,
      "name": "floatBufferViews",
      "target": 34963
    },
    {
      "buffer": 0,
      "byteLength": 213264,
      "byteOffset": 474408,
      "byteStride": 8,
      "name": "floatBufferViews",
      "target": 34962
    },
    {
      "buffer": 0,
      "byteLength": 639792,
      "byteOffset": 687672,
      "byteStride": 12,
      "name": "floatBufferViews",
      "target": 34962
    },
    {
      "buffer": 0,
      "byteLength": 323024,
      "byteOffset": 1327464,
      "byteStride": 16,
      "name": "floatBufferViews",
      "target": 34962
    }
  ],
  "buffers": [
    {
      "byteLength": 1650488,
      "uri": "scene.bin"
    }
  ],
  "extensionsUsed": [
    "KHR_texture_transform"
  ],
  "images": [
    {
      "uri": "textures/Fabric_Plain.001_baseColor.jpeg"
    },
    {
      "uri": "textures/Fabric_Plain.001_normal.png"
    },
    {
      "uri": "textures/Material.002_baseColor.png"
    },
    {
      "uri": "textures/Wood_baseColor.jpeg"
    },
    {
      "uri": "textures/Wood_metallicRoughness.png"
    },
    {
      "uri": "textures/Wood_normal.png"
    }
  ],
  "materials": [
    {
      "doubleSided": true,
      "name": "Fabric",
      "pbrMetallicRoughness": {
        "baseColorFactor": [
          0.6262876229718033,
          0.6262876229718033,
          0.6262876229718033,
          1.0
        ],
        "metallicFactor": 0.0,
        "roughnessFactor": 0.7420974997257134
      }
    },
    {
      "doubleSided": true,
      "name": "Fabric_Plain.001",
      "normalTexture": {
        "extensions": {
          "KHR_texture_transform": {
            "scale": [
              2.0000000000000027,
              2.0000000000000027
            ]
          }
        },
        "index": 1
      },
      "pbrMetallicRoughness": {
        "baseColorTexture": {
          "extensions": {
            "KHR_texture_transform": {
              "scale": [
                2.0000000000000027,
                2.0000000000000027
              ]
            }
          },
          "index": 0
        },
        "metallicFactor": 0.0,
        "roughnessFactor": 0.6
      }
    },
    {
      "doubleSided": true,
      "name": "Material.002",
      "pbrMetallicRoughness": {
        "baseColorTexture": {
          "index": 2
        },
        "metallicFactor": 0.0,
        "roughnessFactor": 0.6
      }
    },
    {
      "doubleSided": true,
      "name": "Material.003",
      "pbrMetallicRoughness": {
        "baseColorFactor": [
          0.7665614189803083,
          0.34977607629489704,
          0.01102086239008149,
          1.0
        ],
        "roughnessFactor": 0.0228572125172191
      }
    },
    {
      "doubleSided": true,
      "name": "Material.005",
      "pbrMetallicRoughness": {
        "baseColorTexture": {
          "index": 2
        },
        "metallicFactor": 0.0,
        "roughnessFactor": 0.11428606258609549
      }
    },
    {
      "doubleSided": true,
      "name": "Wood",
      "normalTexture": {
        "extensions": {
          "KHR_texture_transform": {
            "scale": [
              2.0000000000000027,
              2.0000000000000027
            ]
          }
        },
        "index": 5
      },
      "pbrMetallicRoughness": {
        "baseColorFactor": [
          0.5287635162316685,
          0.5287635162316685,
          0.5287635162316685,
          1.0
        ],
        "baseColorTexture": {
          "extensions": {
            "KHR_texture_transform": {
              "scale": [
                2.0000000000000027,
                2.0000000000000027
              ]
            }
          },
          "index": 3
        },
        "metallicFactor": 0.0,
        "metallicRoughnessTexture": {
          "index": 4
        },
        "roughnessFactor": 0.8274310931233314
      }
    }
  ],
  "meshes": [
    {
      "name": "Object_0",
      "primitives": [
        {
          "attributes": {
            "NORMAL": 1,
            "POSITION": 0,
            "TANGENT": 2,
            "TEXCOORD_0": 3
          },
          "indices": 4,
          "material": 5,
          "mode": 4
        }
      ]
    },
    {
      "name": "Object_1",
      "primitives": [
        {
          "attributes": {
            "NORMAL": 6,
            "POSITION": 5,
            "TEXCOORD_0": 7
          },
          "indices": 8,
          "material": 4,
          "mode": 4
        }
      ]
    },
    {
      "name": "Object_2",
      "primitives": [
        {
          "attributes": {
            "NORMAL": 10,
            "POSITION": 9,
            "TEXCOORD_0": 11
          },
          "indices": 12,
          "material": 2,
          "mode": 4
        }
      ]
    },
    {
      "name": "Object_3",
      "primitives": [
        {
          "attributes": {
            "NORMAL": 14,
            "POSITION": 13,
            "TEXCOORD_0": 15
          },
          "indices": 16,
          "material": 3,
          "mode": 4
        }
      ]
    },
    {
      "name": "Object_4",
      "primitives": [
        {
          "attributes": {
            "NORMAL": 18,
            "POSITION": 17,
            "TANGENT": 19,
            "TEXCOORD_0": 20
          },
          "indices": 21,
          "material": 1,
          "mode": 4
        }
      ]
    },
    {
      "name": "Object_5",
      "primitives": [
        {
          "attributes": {
            "NORMAL": 23,
            "POSITION": 22,
            "TANGENT": 24,
            "TEXCOORD_0": 25
          },
          "indices": 26,
          "material": 1,
          "mode": 4
        }
      ]
    },
    {
      "name": "Object_6",
      "primitives": [
        {
          "attributes": {
            "NORMAL": 28,
            "POSITION": 27,
            "TEXCOORD_0": 29
          },
          "indices": 30,
          "material": 0,
          "mode": 4
        }
      ]
    }
  ],
  "nodes": [
    {
      "children": [
        1
      ],
      "matrix": [
        1.0,
        0.0,
        0.0,
        0.0,
        0.0,
        2.220446049250313e-16,
        -1.0,
        0.0,
        0.0,
        1.0,
        2.220446049250313e-16,
        0.0,
        0.0,
        0.0,
        0.0,
        1.0
      ],
      "name": "Sketchfab_model"
    },
    {
      "children": [
        2,
        3,
        4,
        5,
        6,
        7,
        8
      ],
      "name": "Bed_01.obj.cleaner.materialmerger.gles"
    },
    {
      "mesh": 0,
      "name": "Object_2"
    },
    {
      "mesh": 1,
      "name": "Object_3"
    },
    {
      "mesh": 2,
      "name": "Object_4"
    },
    {
      "mesh": 3,
      "name": "Object_5"
    },
    {
      "mesh": 4,
      "name": "Object_6"
    },
    {
      "mesh": 5,
      "name": "Object_7"
    },
    {
      "mesh": 6,
      "name": "Object_8"
    }
  ],
  "samplers": [
    {
      "magFilter": 9729,
      "minFilter": 9987,
      "wrapS": 10497,
      "wrapT": 10497
    }
  ],
  "scene": 0,
  "scenes": [
    {
      "name": "Sketchfab_Scene",
      "nodes": [
        0
      ]
    }
  ],
  "textures": [
    {
      "sampler": 0,
      "source": 0
    },
    {
      "sampler": 0,
      "source": 1
    },
    {
      "sampler": 0,
      "source": 2
    },
    {
      "sampler": 0,
      "source": 3
    },
    {
      "sampler": 0,
      "source": 4
    },
    {
      "sampler": 0,
      "source": 5
    }
  ]
}
